<svg xmlns="http://www.w3.org/2000/svg" width="58" height="58" viewBox="0 0 58 58">
  <g id="Group_11" data-name="Group 11" transform="translate(-986 -592)">
    <g id="Ellipse_6" data-name="Ellipse 6" transform="translate(986 592)" fill="#fff" stroke="#707070" stroke-width="1">
      <circle cx="29" cy="29" r="29" stroke="none"/>
      <circle cx="29" cy="29" r="28.5" fill="none"/>
    </g>
    <path id="ruler" d="M35.119,10.411,29.109,4.4a1.7,1.7,0,0,0-2.394,0L25.151,5.966c.464.446,1.439,1.452,1.907,1.907a.564.564,0,1,1-.8.8c-.479-.448-1.439-1.462-1.907-1.907L22.526,8.592c.523.524,2.994,2.993,3.567,3.567a.564.564,0,1,1-.8.8c-.587-.589-3.03-3.029-3.567-3.567L19.9,11.217l1.907,1.907a.564.564,0,1,1-.8.8c-.47-.457-1.446-1.455-1.907-1.907L17.27,13.847l3.567,3.567a.564.564,0,1,1-.8.8l-3.567-3.567-1.828,1.828,1.907,1.907a.564.564,0,1,1-.8.8c-.46-.466-1.452-1.448-1.907-1.907L12.015,19.1c.524.523,2.993,2.994,3.567,3.567a.564.564,0,0,1-.8.8L11.217,19.9,9.39,21.728c.449.461,1.45,1.441,1.907,1.907a.564.564,0,1,1-.8.8L8.592,22.526,6.764,24.353c.524.523,2.993,2.994,3.567,3.567a.564.564,0,1,1-.8.8c-.589-.587-3.028-3.03-3.567-3.567L4.4,26.715a1.7,1.7,0,0,0,0,2.394l6.009,6.009a1.7,1.7,0,0,0,2.394,0L35.119,12.806a1.7,1.7,0,0,0,0-2.394Z" transform="translate(995.24 603.432)" fill="#131313"/>
  </g>
</svg>
