<svg xmlns="http://www.w3.org/2000/svg" width="22" height="22" viewBox="0 0 22 22">
  <g id="spacing" transform="translate(-2 -2)">
    <path id="Path_20" data-name="Path 20" d="M21.448,15a.733.733,0,1,0,0,1.467h2.671v6.076a.733.733,0,1,0,1.467,0V16.467h2.671a.733.733,0,1,0,0-1.467Z" transform="translate(-11.852 -8.233)" fill="#707070"/>
    <path id="Path_21" data-name="Path 21" d="M12.823,37.68a.733.733,0,0,0-1.037-1.037l-1.571,1.571a.733.733,0,0,0,0,1.037l1.571,1.571a.733.733,0,0,0,1.037-1.037l-.32-.32H23.63l-.32.32a.733.733,0,0,0,1.037,1.037l1.571-1.571a.733.733,0,0,0,0-1.037l-1.571-1.571A.733.733,0,0,0,23.31,37.68l.32.32H12.5Z" transform="translate(-5.067 -21.805)" fill="#707070"/>
    <path id="Path_22" data-name="Path 22" d="M8.6,2A6.6,6.6,0,0,0,2,8.6v8.8A6.6,6.6,0,0,0,8.6,24h8.8A6.6,6.6,0,0,0,24,17.4V8.6A6.6,6.6,0,0,0,17.4,2ZM3.467,8.6A5.133,5.133,0,0,1,8.6,3.467h8.8A5.133,5.133,0,0,1,22.533,8.6v8.8A5.133,5.133,0,0,1,17.4,22.533H8.6A5.133,5.133,0,0,1,3.467,17.4Z" fill="#707070" fill-rule="evenodd"/>
  </g>
</svg>
