<?xml version="1.0" encoding="UTF-8"?><svg id="Layer_2" xmlns="http://www.w3.org/2000/svg" viewBox="0 0 1037.69 135.85"><defs><style>.cls-1{fill:#fff;}.cls-2,.cls-3{fill:#39b54a;}.cls-3{fill-rule:evenodd;}</style></defs><g id="Layer_1-2"><rect class="cls-1" x="19.72" y="25.73" width="95.69" height="92.31"/><path class="cls-3" d="m0,20.38C0,9.12,9.12,0,20.38,0h95.09c11.25,0,20.38,9.12,20.38,20.38v95.09c0,11.25-9.12,20.38-20.38,20.38H20.38c-11.25,0-20.38-9.12-20.38-20.38V20.38Zm33.96,13.58c-3.75,0-6.79,3.04-6.79,6.79s3.04,6.79,6.79,6.79h40.75c3.75,0,6.79-3.04,6.79-6.79s-3.04-6.79-6.79-6.79h-40.75Zm-6.79,33.96c0-3.75,3.04-6.79,6.79-6.79h67.92c3.75,0,6.79,3.04,6.79,6.79s-3.04,6.79-6.79,6.79H33.96c-3.75,0-6.79-3.04-6.79-6.79Zm6.79,20.38c-3.75,0-6.79,3.04-6.79,6.79s3.04,6.79,6.79,6.79h20.38c3.75,0,6.79-3.04,6.79-6.79s-3.04-6.79-6.79-6.79h-20.38Z"/><path class="cls-2" d="m231.34,104.81c-3.03,1.51-9.09,3.03-16.85,3.03-17.99,0-31.52-11.36-31.52-32.28s13.54-33.51,33.32-33.51c7.95,0,12.97,1.7,15.15,2.84l-1.99,6.72c-3.12-1.51-7.57-2.65-12.87-2.65-14.96,0-24.9,9.56-24.9,26.32,0,15.62,8.99,25.65,24.52,25.65,5.02,0,10.13-1.04,13.44-2.65l1.7,6.53Z"/><path class="cls-2" d="m241.38,39.68h8.33v28.59h.19c1.33-2.37,3.41-4.45,5.96-5.87,2.46-1.42,5.4-2.37,8.52-2.37,6.15,0,16,3.79,16,19.6v27.26h-8.33v-26.32c0-7.38-2.75-13.63-10.6-13.63-5.4,0-9.66,3.79-11.17,8.33-.47,1.14-.57,2.37-.57,3.98v27.64h-8.33V39.68Z"/><path class="cls-2" d="m293.91,75.37c0-5.4-.09-10.03-.38-14.29h7.29l.28,8.99h.38c2.08-6.15,7.1-10.03,12.69-10.03.95,0,1.61.09,2.37.28v7.86c-.85-.19-1.7-.28-2.84-.28-5.87,0-10.03,4.45-11.17,10.7-.19,1.14-.38,2.46-.38,3.88v24.42h-8.24v-31.52Z"/><path class="cls-2" d="m365.39,83.6c0,16.94-11.74,24.33-22.81,24.33-12.4,0-21.96-9.09-21.96-23.57,0-15.34,10.03-24.33,22.72-24.33s22.06,9.56,22.06,23.57Zm-36.35.47c0,10.03,5.77,17.61,13.92,17.61s13.92-7.48,13.92-17.8c0-7.76-3.88-17.61-13.73-17.61s-14.1,9.09-14.1,17.8Z"/><path class="cls-2" d="m375.89,73.47c0-4.73-.09-8.61-.38-12.4h7.29l.38,7.38h.28c2.56-4.35,6.82-8.43,14.39-8.43,6.25,0,10.98,3.79,12.97,9.18h.19c1.42-2.56,3.22-4.54,5.11-5.96,2.75-2.08,5.77-3.22,10.13-3.22,6.06,0,15.05,3.98,15.05,19.88v26.98h-8.14v-25.94c0-8.8-3.22-14.1-9.94-14.1-4.73,0-8.42,3.5-9.85,7.57-.38,1.14-.66,2.65-.66,4.17v28.31h-8.14v-27.45c0-7.29-3.22-12.59-9.56-12.59-5.21,0-8.99,4.17-10.32,8.33-.47,1.23-.66,2.65-.66,4.07v27.64h-8.14v-33.42Z"/><path class="cls-2" d="m459.48,85.49c.19,11.27,7.38,15.9,15.71,15.9,5.96,0,9.56-1.04,12.69-2.37l1.42,5.96c-2.93,1.33-7.95,2.84-15.24,2.84-14.1,0-22.53-9.28-22.53-23.1s8.14-24.71,21.49-24.71c14.96,0,18.93,13.16,18.93,21.58,0,1.7-.19,3.03-.28,3.88h-32.19Zm24.42-5.96c.09-5.3-2.18-13.54-11.55-13.54-8.43,0-12.12,7.76-12.78,13.54h24.33Z"/><path class="cls-2" d="m522.62,43.94c4.17-.85,10.13-1.33,15.81-1.33,8.8,0,14.48,1.61,18.46,5.21,3.22,2.84,5.02,7.19,5.02,12.12,0,8.43-5.3,14.01-12.02,16.28v.28c4.92,1.7,7.86,6.25,9.37,12.87,2.08,8.9,3.6,15.05,4.92,17.51h-8.52c-1.04-1.8-2.46-7.29-4.26-15.24-1.89-8.8-5.3-12.12-12.78-12.4h-7.76v27.64h-8.24v-62.95Zm8.24,29.06h8.42c8.8,0,14.39-4.83,14.39-12.12,0-8.24-5.96-11.83-14.67-11.93-3.98,0-6.82.38-8.14.76v23.29Z"/><path class="cls-2" d="m578.29,85.49c.19,11.27,7.38,15.9,15.71,15.9,5.96,0,9.56-1.04,12.69-2.37l1.42,5.96c-2.93,1.33-7.95,2.84-15.24,2.84-14.11,0-22.53-9.28-22.53-23.1s8.14-24.71,21.49-24.71c14.96,0,18.93,13.16,18.93,21.58,0,1.7-.19,3.03-.28,3.88h-32.19Zm24.42-5.96c.09-5.3-2.18-13.54-11.55-13.54-8.43,0-12.12,7.76-12.78,13.54h24.33Z"/><path class="cls-2" d="m646.45,106.89l-.66-5.77h-.28c-2.56,3.6-7.48,6.82-14.01,6.82-9.28,0-14.01-6.53-14.01-13.16,0-11.08,9.84-17.13,27.55-17.04v-.95c0-3.79-1.04-10.6-10.41-10.6-4.26,0-8.71,1.33-11.93,3.41l-1.89-5.49c3.79-2.46,9.28-4.07,15.05-4.07,14.01,0,17.42,9.56,17.42,18.74v17.13c0,3.98.19,7.86.76,10.98h-7.57Zm-1.23-23.38c-9.09-.19-19.41,1.42-19.41,10.32,0,5.4,3.6,7.95,7.86,7.95,5.96,0,9.75-3.79,11.08-7.67.28-.85.47-1.8.47-2.65v-7.95Z"/><path class="cls-2" d="m706.27,39.68v55.38c0,4.07.09,8.71.38,11.83h-7.48l-.38-7.95h-.19c-2.56,5.11-8.14,8.99-15.62,8.99-11.08,0-19.6-9.37-19.6-23.29-.09-15.24,9.37-24.61,20.54-24.61,7,0,11.74,3.31,13.82,7.01h.19v-27.36h8.33Zm-8.33,40.04c0-1.04-.09-2.46-.38-3.5-1.23-5.3-5.77-9.66-12.02-9.66-8.61,0-13.73,7.57-13.73,17.7,0,9.28,4.54,16.94,13.54,16.94,5.58,0,10.7-3.69,12.21-9.94.28-1.14.38-2.27.38-3.6v-7.95Z"/><path class="cls-2" d="m724.73,85.49c.19,11.27,7.38,15.9,15.71,15.9,5.96,0,9.56-1.04,12.69-2.37l1.42,5.96c-2.93,1.33-7.95,2.84-15.24,2.84-14.11,0-22.53-9.28-22.53-23.1s8.14-24.71,21.49-24.71c14.96,0,18.93,13.16,18.93,21.58,0,1.7-.19,3.03-.28,3.88h-32.19Zm24.42-5.96c.09-5.3-2.18-13.54-11.55-13.54-8.43,0-12.12,7.76-12.78,13.54h24.33Z"/><path class="cls-2" d="m767.52,75.37c0-5.4-.09-10.03-.38-14.29h7.29l.28,8.99h.38c2.08-6.15,7.1-10.03,12.69-10.03.95,0,1.61.09,2.37.28v7.86c-.85-.19-1.7-.28-2.84-.28-5.87,0-10.03,4.45-11.17,10.7-.19,1.14-.38,2.46-.38,3.88v24.42h-8.24v-31.52Z"/><path class="cls-2" d="m872.6,78.87c-.47-8.9-1.04-19.6-.95-27.55h-.28c-2.18,7.48-4.83,15.43-8.05,24.23l-11.27,30.96h-6.25l-10.32-30.39c-3.03-8.99-5.58-17.23-7.38-24.8h-.19c-.19,7.95-.66,18.65-1.23,28.21l-1.7,27.36h-7.86l4.45-63.8h10.51l10.89,30.86c2.65,7.86,4.83,14.86,6.44,21.49h.28c1.61-6.44,3.88-13.44,6.72-21.49l11.36-30.86h10.51l3.98,63.8h-8.05l-1.61-28.02Z"/><path class="cls-2" d="m936.69,83.6c0,16.94-11.74,24.33-22.81,24.33-12.4,0-21.96-9.09-21.96-23.57,0-15.34,10.03-24.33,22.72-24.33s22.06,9.56,22.06,23.57Zm-36.35.47c0,10.03,5.77,17.61,13.92,17.61s13.92-7.48,13.92-17.8c0-7.76-3.88-17.61-13.73-17.61s-14.11,9.09-14.11,17.8Z"/><path class="cls-2" d="m986.76,39.68v55.38c0,4.07.09,8.71.38,11.83h-7.48l-.38-7.95h-.19c-2.56,5.11-8.14,8.99-15.62,8.99-11.08,0-19.6-9.37-19.6-23.29-.09-15.24,9.37-24.61,20.54-24.61,7,0,11.74,3.31,13.82,7.01h.19v-27.36h8.33Zm-8.33,40.04c0-1.04-.09-2.46-.38-3.5-1.23-5.3-5.77-9.66-12.02-9.66-8.61,0-13.73,7.57-13.73,17.7,0,9.28,4.54,16.94,13.54,16.94,5.58,0,10.7-3.69,12.21-9.94.28-1.14.38-2.27.38-3.6v-7.95Z"/><path class="cls-2" d="m1005.22,85.49c.19,11.27,7.38,15.9,15.71,15.9,5.96,0,9.56-1.04,12.69-2.37l1.42,5.96c-2.93,1.33-7.95,2.84-15.24,2.84-14.11,0-22.53-9.28-22.53-23.1s8.14-24.71,21.49-24.71c14.96,0,18.93,13.16,18.93,21.58,0,1.7-.19,3.03-.28,3.88h-32.19Zm24.42-5.96c.09-5.3-2.18-13.54-11.55-13.54-8.43,0-12.12,7.76-12.78,13.54h24.33Z"/></g></svg>