<svg xmlns="http://www.w3.org/2000/svg" width="58" height="58" viewBox="0 0 58 58">
  <g id="Group_10" data-name="Group 10" transform="translate(-916 -589)">
    <g id="Ellipse_5" data-name="Ellipse 5" transform="translate(916 589)" fill="#fff" stroke="#707070" stroke-width="1">
      <circle cx="29" cy="29" r="29" stroke="none"/>
      <circle cx="29" cy="29" r="28.5" fill="none"/>
    </g>
    <path id="expand" d="M29.686,5.463v4.845a1.384,1.384,0,1,1-2.768,0V5.463c0-.621-.072-.692-.692-.692H21.381a1.384,1.384,0,1,1,0-2.768h4.845a3.211,3.211,0,0,1,3.46,3.46ZM10.308,2H5.463A3.211,3.211,0,0,0,2,5.463v4.845a1.384,1.384,0,0,0,2.768,0V5.463c0-.621.072-.692.692-.692h4.845a1.384,1.384,0,0,0,0-2.768Zm0,24.915H5.463c-.62,0-.692-.071-.692-.692V21.381a1.384,1.384,0,1,0-2.768,0v4.845a3.211,3.211,0,0,0,3.46,3.46h4.845a1.384,1.384,0,1,0,0-2.768ZM28.3,20a1.384,1.384,0,0,0-1.384,1.384v4.845c0,.621-.072.692-.692.692H21.381a1.384,1.384,0,1,0,0,2.768h4.845a3.211,3.211,0,0,0,3.46-3.46V21.381A1.384,1.384,0,0,0,28.3,20Z" transform="translate(929.156 603.156)" fill="#131313"/>
  </g>
</svg>
