<svg xmlns="http://www.w3.org/2000/svg" width="58" height="58" viewBox="0 0 58 58">
  <g id="Group_18" data-name="Group 18" transform="translate(-844 -833)">
    <g id="Ellipse_13" data-name="Ellipse 13" transform="translate(844 833)" fill="#fff" stroke="#fff" stroke-width="1">
      <circle cx="29" cy="29" r="29" stroke="none"/>
      <circle cx="29" cy="29" r="28.5" fill="none"/>
    </g>
    <g id="Ellipse_14" data-name="Ellipse 14" transform="translate(844 833)" fill="#1a1a1a" stroke="#fff" stroke-width="1">
      <circle cx="29" cy="29" r="29" stroke="none"/>
      <circle cx="29" cy="29" r="28.5" fill="none"/>
    </g>
    <path id="night-mode_1_" data-name="night-mode (1)" d="M32.766,21.019a1.069,1.069,0,0,0-1.114-.25A14.354,14.354,0,0,1,13.312,2.428a1.069,1.069,0,0,0-1.364-1.367A16.269,16.269,0,0,0,5.823,4.935,16.491,16.491,0,1,0,29.145,28.257a16.269,16.269,0,0,0,3.874-6.125,1.069,1.069,0,0,0-.253-1.113Z" transform="translate(855.963 844.957)" fill="#fff"/>
  </g>
</svg>
