<svg xmlns="http://www.w3.org/2000/svg" width="58" height="58" viewBox="0 0 58 58">
  <g id="Group_15" data-name="Group 15" transform="translate(-916 -660)">
    <g id="Ellipse_9" data-name="Ellipse 9" transform="translate(916 660)" fill="#fff" stroke="#707070" stroke-width="1">
      <circle cx="29" cy="29" r="29" stroke="none"/>
      <circle cx="29" cy="29" r="28.5" fill="none"/>
    </g>
    <path id="full-screen" d="M9.648.327a1.642,1.642,0,0,0-1.6,1.65v6.4H1.688a1.661,1.661,0,0,0-1.235.52,1.688,1.688,0,0,0,0,2.216,1.661,1.661,0,0,0,1.235.52H9.673A1.641,1.641,0,0,0,11.3,10V1.977A1.642,1.642,0,0,0,9.648.327Zm8.357-.02a1.642,1.642,0,0,0-1.6,1.654V9.942A1.642,1.642,0,0,0,18.03,11.57h8.023a1.656,1.656,0,0,0,1.235-.521,1.687,1.687,0,0,0,0-2.216,1.664,1.664,0,0,0-1.235-.519H19.66V1.961A1.642,1.642,0,0,0,18.005.307Zm.026,15.849A1.642,1.642,0,0,0,16.4,17.784v8.023a1.661,1.661,0,0,0,.52,1.235,1.629,1.629,0,0,0,2.737-1.235V19.412h6.355a1.629,1.629,0,1,0,0-3.257Zm-16.381.06a1.661,1.661,0,0,0-1.235.519,1.688,1.688,0,0,0,0,2.216,1.659,1.659,0,0,0,1.235.521H8.045v6.356a1.661,1.661,0,0,0,.52,1.235,1.685,1.685,0,0,0,2.216,0,1.661,1.661,0,0,0,.52-1.235V17.844a1.642,1.642,0,0,0-1.628-1.628Z" transform="translate(931.148 676.107)" fill="#131313"/>
  </g>
</svg>
