<svg xmlns="http://www.w3.org/2000/svg" width="22" height="22" viewBox="0 0 22 22">
  <g id="spacing_1_" data-name="spacing (1)" transform="translate(-2 -2)">
    <path id="Path_16" data-name="Path 16" d="M12.733,12a.733.733,0,1,0,0,1.467h13.2a.733.733,0,1,0,0-1.467Z" transform="translate(-6.333 -6.333)" fill="#707070"/>
    <path id="Path_17" data-name="Path 17" d="M28.809,17.715a.733.733,0,0,0-1.037,0l-1.414,1.414a.733.733,0,0,0,1.037,1.037L27.557,20V25.63l-.162-.162A.733.733,0,0,0,26.358,26.5l1.414,1.414a.733.733,0,0,0,1.037,0L30.223,26.5a.733.733,0,0,0-1.037-1.037l-.162.162V20l.162.162a.733.733,0,1,0,1.037-1.037Z" transform="translate(-15.29 -9.817)" fill="#707070"/>
    <path id="Path_18" data-name="Path 18" d="M12.733,48a.733.733,0,1,0,0,1.467h13.2a.733.733,0,1,0,0-1.467Z" transform="translate(-6.333 -29.133)" fill="#707070"/>
    <path id="Path_19" data-name="Path 19" d="M8.6,2A6.6,6.6,0,0,0,2,8.6v8.8A6.6,6.6,0,0,0,8.6,24h8.8A6.6,6.6,0,0,0,24,17.4V8.6A6.6,6.6,0,0,0,17.4,2ZM3.467,8.6A5.133,5.133,0,0,1,8.6,3.467h8.8A5.133,5.133,0,0,1,22.533,8.6v8.8A5.133,5.133,0,0,1,17.4,22.533H8.6A5.133,5.133,0,0,1,3.467,17.4Z" fill="#707070" fill-rule="evenodd"/>
  </g>
</svg>
